HIERARCHY
ROOT Hips
{
	OFFSET 0.000000 0.000000 0.000000
	CHANNELS 6 Xposition Yposition Zposition Zrotation Yrotation Xrotation 
	JOINT LHipJoint
	{
		OFFSET 0.000000 0.000000 0.000000
		CHANNELS 3 Zrotation Yrotation Xrotation
		JOINT LeftUpLeg
		{
			OFFSET 1.363060 -1.794630 0.839290
			CHANNELS 3 Zrotation Yrotation Xrotation
			JOINT LeftLeg
			{
				OFFSET 2.448110 -6.726130 0.000000
				CHANNELS 3 Zrotation Yrotation Xrotation
				JOINT LeftFoot
				{
					OFFSET 2.562200 -7.039590 0.000000
					CHANNELS 3 Zrotation Yrotation Xrotation
					JOINT LeftToeBase
					{
						OFFSET 0.157640 -0.433110 2.322550
						CHANNELS 3 Zrotation Yrotation Xrotation
						End Site
						{
							OFFSET 0.000000 0.000000 0.000000
						}
					}
				}
			}
		}
	}
	JOINT RHipJoint
	{
		OFFSET 0.000000 0.000000 0.000000
		CHANNELS 3 Zrotation Yrotation Xrotation
		JOINT RightUpLeg
		{
			OFFSET -1.305520 -1.794630 0.839290
			CHANNELS 3 Zrotation Yrotation Xrotation
			JOINT RightLeg
			{
				OFFSET -2.542530 -6.985550 0.000000
				CHANNELS 3 Zrotation Yrotation Xrotation
				JOINT RightFoot
				{
					OFFSET -2.568260 -7.056230 0.000000
					CHANNELS 3 Zrotation Yrotation Xrotation
					JOINT RightToeBase
					{
						OFFSET -0.164730 -0.452590 2.363150
						CHANNELS 3 Zrotation Yrotation Xrotation
						End Site
						{
							OFFSET 0.000000 0.000000 0.000000
						}
					}
				}
			}
		}
	}
}
MOTION
Frames: 27
Frame Time: 0.008333
1.919023 16.785131 -3.288273 177.408253 41.652775 -158.633141 -9.910370 0.548198 -0.423234 -15.045649 -12.013537 -1.207344 -2.964921 -0.394360 13.143821 -0.836283 -12.421091 -9.595894 0.789100 0.000000 -15.432400 7.365290 0.204243 2.873284 0.750960 14.427807 -44.285159 2.372554 -0.326409 9.961654 1.340428 8.315642 10.150816 2.125300 -0.000001 -37.108600
2.003310 16.784153 -3.391471 177.561600 41.133473 -158.312402 -10.042341 0.571355 -0.356204 -14.647180 -12.234133 -1.281070 -2.890890 -0.318183 13.698314 -0.855715 -12.605413 -9.168056 0.745700 0.000000 -16.696300 7.288192 0.119609 2.921343 0.619684 14.831270 -44.830015 2.240864 -0.484824 11.601977 1.226627 7.562244 9.957244 1.871401 -0.000000 -35.384100
2.084152 16.788548 -3.494752 177.768703 40.623759 -157.972317 -10.191385 0.593420 -0.299856 -14.198972 -12.429459 -1.401587 -2.802586 -0.228877 14.325983 -0.874839 -12.775746 -8.622554 0.677700 0.000000 -18.048600 7.188521 0.040484 2.950731 0.586935 15.215151 -45.283103 2.130029 -0.619596 13.168530 1.105576 6.778703 9.493715 1.581600 0.000001 -34.004600
2.162360 16.798001 -3.597182 178.012233 40.113586 -157.630350 -10.353227 0.616201 -0.257124 -13.709666 -12.583893 -1.569967 -2.702935 -0.126822 15.034242 -0.893901 -12.954935 -7.967487 0.586500 -0.000000 -19.451600 7.071902 -0.032303 2.962830 0.642019 15.578057 -45.608331 2.041912 -0.727540 14.598886 0.977971 5.977818 8.795722 1.273799 0.000000 -32.963600
2.238687 16.811978 -3.698119 178.277640 39.589732 -157.299321 -10.523480 0.641583 -0.229081 -13.187590 -12.681991 -1.792706 -2.594808 -0.012993 15.832912 -0.912857 -13.166934 -7.215340 0.473600 -0.000000 -20.920000 6.945317 -0.098458 2.960200 0.772480 15.912210 -45.784015 1.977296 -0.807441 15.846780 0.844899 5.175167 7.909868 0.965800 -0.000001 -32.190400
2.314047 16.829684 -3.796955 178.547275 39.037937 -156.991958 -10.697953 0.671554 -0.215250 -12.640088 -12.710237 -2.079953 -2.480798 0.111344 16.732985 -0.931316 -13.433524 -6.377389 0.338800 0.000000 -22.535000 6.816629 -0.157846 2.945772 0.965050 16.205090 -45.801326 1.935258 -0.859836 16.882782 0.707760 4.386007 6.892575 0.673900 -0.000001 -31.591400
2.389469 16.850168 -3.893203 178.793582 38.445701 -156.723553 -10.867639 0.707228 -0.211193 -12.089845 -12.679987 -2.434015 -2.364484 0.242699 17.735154 -0.947508 -13.752839 -5.483157 0.183400 0.000000 -24.190200 6.697206 -0.208533 2.920773 1.197174 16.430976 -45.669525 1.912497 -0.888157 17.704154 0.569747 3.634652 5.800845 0.412900 -0.000000 -31.076600
2.465476 16.872482 -3.986831 179.009322 37.801348 -156.495966 -11.032300 0.749919 -0.214916 -11.534235 -12.576903 -2.872389 -2.246558 0.379953 18.853440 -0.960798 -14.141495 -4.540832 0.005800 0.000001 -25.996400 6.592643 -0.251698 2.888731 1.460609 16.577668 -45.400804 1.906387 -0.895057 18.309131 0.432921 2.928012 4.699448 0.188399 -0.000000 -30.558900
2.542684 16.895688 -4.077706 179.173780 37.097720 -156.316017 -11.185747 0.800141 -0.220967 -10.991177 -12.416826 -3.400188 -2.128061 0.520257 20.086437 -0.969311 -14.583835 -3.560461 -0.197001 0.000000 -27.971700 6.512043 -0.286350 2.850433 1.736064 16.620665 -45.023085 1.912316 -0.885769 18.721246 0.301259 2.282884 3.640044 0.004500 0.000000 -29.981400
2.621033 16.919028 -4.166247 179.287950 36.331037 -156.176317 -11.328408 0.857591 -0.226067 -10.461424 -12.200683 -4.029433 -2.007637 0.662152 21.438543 -0.971669 -15.072846 -2.540209 -0.429400 -0.000001 -30.150200 6.458498 -0.313924 2.808012 2.015636 16.550537 -44.564340 1.927086 -0.864453 18.963562 0.177520 1.702229 2.669086 -0.141800 -0.000000 -29.317900
2.700488 16.941905 -4.252703 179.349122 35.504225 -156.070924 -11.460522 0.921121 -0.227471 -9.947352 -11.934728 -4.767607 -1.883791 0.803981 22.908922 -0.966337 -15.592905 -1.476535 -0.696201 0.000000 -32.482700 6.433556 -0.335762 2.762676 2.293282 16.362520 -44.054929 1.947457 -0.835243 19.065927 0.064089 1.186612 1.817860 -0.255899 -0.000000 -28.577099
2.780292 16.963922 -4.337784 179.373382 34.623266 -155.983118 -11.586754 0.988797 -0.223945 -9.442370 -11.616650 -5.623706 -1.752438 0.945108 24.494220 -0.951579 -16.130930 -0.338191 -1.009200 0.000000 -35.034401 6.433587 -0.354752 2.716740 2.569879 16.065280 -43.521698 1.972051 -0.800869 19.054729 -0.038230 0.728397 1.102874 -0.345600 -0.000000 -27.792000
2.859884 16.984926 -4.421860 179.370335 33.700498 -155.901674 -11.710459 1.057826 -0.215482 -8.943651 -11.248154 -6.598710 -1.610257 1.084427 26.185010 -0.925275 -16.666117 0.903556 -1.380300 -0.000000 -37.832700 6.453845 -0.373159 2.671471 2.848017 15.673061 -42.986781 1.999789 -0.763384 18.956579 -0.129540 0.319300 0.523310 -0.417999 0.000000 -27.011900
2.938322 17.004904 -4.505355 179.355316 32.752171 -155.815196 -11.834591 1.123786 -0.203620 -8.450679 -10.834004 -7.684516 -1.455802 1.220283 27.968111 -0.885851 -17.179046 2.254933 -1.814800 -0.000000 -40.590799 6.487491 -0.392800 2.627084 3.132189 15.206875 -42.464272 2.030817 -0.723921 18.794554 -0.210714 -0.048728 0.063394 -0.478601 0.000000 -26.293600
3.014674 17.024046 -4.588558 179.344901 31.796351 -155.715611 -11.962469 1.182172 -0.191152 -7.962197 -10.375209 -8.868858 -1.288375 1.351414 29.827849 -0.831949 -17.651588 3.724828 -2.317300 0.000000 -43.088400 6.526276 -0.415383 2.583694 3.429632 14.692849 -41.958632 2.066124 -0.682405 18.584723 -0.283526 -0.385091 -0.302463 -0.531700 0.000000 -25.679800
3.088212 17.042588 -4.671574 179.352429 30.850685 -155.598279 -12.096823 1.229008 -0.181323 -7.476891 -9.870659 -10.136181 -1.107524 1.476791 31.741780 -0.761759 -18.062723 5.339045 -2.895300 -0.000000 -45.380200 6.562000 -0.442355 2.541640 3.748503 14.159617 -41.466858 2.106870 -0.637792 18.336068 -0.350230 -0.699274 -0.604054 -0.580300 -0.000000 -25.195300
3.158361 17.060844 -4.754242 179.386555 29.932881 -155.466049 -12.237327 1.260004 -0.178164 -7.000062 -9.326171 -11.461428 -0.917200 1.595158 33.688834 -0.675431 -18.392400 7.072342 -3.536400 0.000000 -47.182600 6.588242 -0.473671 2.499138 4.093914 13.631090 -40.977416 2.154104 -0.588957 18.053527 -0.412613 -0.996305 -0.872472 -0.624900 -0.000001 -24.847501
3.224782 17.079075 -4.836329 179.452699 29.056299 -155.324860 -12.382385 1.272164 -0.185454 -6.538073 -8.747665 -12.818035 -0.722754 1.705885 35.647414 -0.574298 -18.619166 8.887574 -4.217600 -0.000000 -48.330100 6.600398 -0.508844 2.454279 4.468991 13.126839 -40.473762 2.208503 -0.534553 17.736426 -0.472133 -1.279578 -1.133279 -0.665599 0.000000 -24.624100
3.287537 17.097498 -4.917415 179.549259 28.230723 -155.185042 -12.528804 1.264053 -0.206487 -6.098801 -8.143211 -14.179489 -0.530836 1.809167 37.598247 -0.461366 -18.720104 10.727038 -4.902200 -0.000000 -48.722700 6.596470 -0.546683 2.404688 4.873390 12.659370 -39.937336 2.269835 -0.473465 17.380965 -0.529801 -1.550991 -1.403584 -0.701500 0.000000 -24.498000
3.346886 17.116262 -4.997061 179.672469 27.459850 -155.058005 -12.672741 1.236101 -0.243452 -5.690278 -7.521551 -15.522176 -0.347947 1.906152 39.526229 -0.341190 -18.669617 12.515506 -5.541300 0.000000 -48.338099 6.576717 -0.585786 2.348492 5.303354 12.234190 -39.350914 2.337227 -0.404961 16.981319 -0.586061 -1.811215 -1.690299 -0.732100 0.000000 -24.435000
3.403343 17.135370 -5.074929 179.812456 26.743225 -154.955006 -12.808725 1.190305 -0.297866 -5.325138 -6.897075 -16.823372 -0.179400 1.998560 41.415091 -0.219251 -18.439527 14.172824 -6.080000 -0.000000 -47.344700 6.544980 -0.623615 2.282069 5.749666 11.845209 -38.702118 2.408980 -0.329662 16.535909 -0.640180 -2.055764 -1.992971 -0.756100 -0.000000 -24.390400
3.457638 17.154764 -5.150612 179.957761 26.075647 -154.886996 -12.932904 1.130642 -0.368589 -5.010608 -6.280236 -18.071520 -0.027999 2.088768 43.259208 -0.101060 -18.004059 15.615870 -6.464400 0.000000 -45.907600 6.505713 -0.658906 2.205212 6.203114 11.484136 -37.984603 2.482816 -0.248204 16.041910 -0.691586 -2.284045 -2.300405 -0.773700 0.000000 -24.331700
3.510521 17.174292 -5.223935 -179.904640 25.449517 -154.861660 -13.041205 1.061580 -0.453643 -4.755924 -5.685050 -19.258513 0.105826 2.178935 45.052598 0.008706 -17.340300 16.772265 -6.650300 0.000001 -44.304000 6.465277 -0.689870 2.116753 6.651101 11.135350 -37.199994 2.556217 -0.162493 15.503290 -0.738784 -2.491441 -2.598609 -0.785200 -0.000000 -24.228800
3.562779 17.193774 -5.294853 -179.789563 24.856438 -154.883105 -13.129700 0.987743 -0.549719 -4.571326 -5.126246 -20.382576 0.223632 2.270412 46.790295 0.106991 -16.433222 17.588016 -6.611800 -0.000000 -42.850700 6.431298 -0.714758 2.015787 7.079667 10.777982 -36.360158 2.626695 -0.075465 14.931658 -0.779635 -2.669996 -2.874311 -0.790700 -0.000000 -24.059400
3.614995 17.212995 -5.363500 -179.706997 24.288398 -154.950944 -13.196682 0.913147 -0.652750 -4.461201 -4.612868 -21.449855 0.327914 2.364064 48.472135 0.192176 -15.281085 18.019683 -6.342000 -0.000000 -41.706100 6.409496 -0.733089 1.903546 7.477727 10.395785 -35.481348 2.692207 0.010333 14.338586 -0.812634 -2.815798 -3.113706 -0.791300 0.000000 -23.820600
3.667591 17.231748 -5.430130 -179.663513 23.738762 -155.061486 -13.241469 0.840957 -0.758206 -4.428051 -4.150453 -22.469822 0.421166 2.459779 50.095830 0.264357 -13.895208 18.042873 -5.856500 0.000000 -40.953500 6.404331 -0.745038 1.782089 7.836429 9.974940 -34.583933 2.751330 0.092279 13.739893 -0.836552 -2.924992 -3.308537 -0.788000 0.000001 -23.521000
3.720803 17.249898 -5.495164 -179.662807 23.203704 -155.206710 -13.264336 0.772787 -0.862306 -4.470678 -3.740218 -23.454756 0.504979 2.556638 51.655665 0.325251 -12.301760 17.654067 -5.191500 -0.000000 -40.574400 6.418257 -0.751164 1.654057 8.149784 9.507993 -33.690454 2.803234 0.168368 13.150875 -0.850896 -2.995775 -3.456167 -0.781800 0.000001 -23.180000
